<svg width="17" height="17" viewBox="0 0 17 17" fill="none" xmlns="http://www.w3.org/2000/svg">
<g clip-path="url(#clip0_194_2389)">
<path d="M8.41001 2.80334C10.3632 2.80334 12.0985 3.68429 13.3341 4.77479C13.9543 5.32214 14.4652 5.93677 14.8254 6.5486C15.1794 7.14921 15.4183 7.80029 15.4183 8.41001C15.4183 9.01974 15.1801 9.67081 14.8254 10.2714C14.4652 10.8833 13.9543 11.4979 13.3341 12.0452C12.0985 13.1357 10.3625 14.0167 8.41001 14.0167C6.45678 14.0167 4.72152 13.1357 3.48595 12.0452C2.86571 11.4979 2.35481 10.8833 1.99458 10.2714C1.63996 9.67081 1.40167 9.01974 1.40167 8.41001C1.40167 7.80029 1.63996 7.14921 1.99458 6.5486C2.35481 5.93677 2.86571 5.32214 3.48595 4.77479C4.72152 3.68429 6.45748 2.80334 8.41001 2.80334ZM8.41001 4.20501C6.87939 4.20501 5.4609 4.90094 4.41385 5.82534C3.89243 6.28508 3.48034 6.78758 3.20211 7.25994C2.91757 7.74352 2.80334 8.14369 2.80334 8.41001C2.80334 8.67633 2.91757 9.0765 3.20211 9.56008C3.48034 10.0324 3.89243 10.5342 4.41385 10.9947C5.4609 11.9191 6.87939 12.615 8.41001 12.615C9.94063 12.615 11.3591 11.9191 12.4062 10.9947C12.9276 10.5342 13.3397 10.0324 13.6179 9.56008C13.9024 9.0765 14.0167 8.67633 14.0167 8.41001C14.0167 8.14369 13.9024 7.74352 13.6179 7.25994C13.3397 6.78758 12.9276 6.28579 12.4062 5.82534C11.3591 4.90094 9.94063 4.20501 8.41001 4.20501ZM8.41001 6.30751C8.47168 6.30751 8.53265 6.31031 8.59292 6.31522C8.44076 6.58214 8.38052 6.89165 8.42145 7.19615C8.46239 7.50065 8.60224 7.78327 8.81949 8.00052C9.03675 8.21777 9.31936 8.35763 9.62386 8.39856C9.92836 8.4395 10.2379 8.37925 10.5048 8.22709C10.5417 8.64911 10.4502 9.07242 10.2423 9.44156C10.0345 9.81069 9.71997 10.1084 9.34002 10.2958C8.96006 10.4831 8.53238 10.5513 8.11301 10.4914C7.69364 10.4315 7.30214 10.2463 6.98982 9.96011C6.67749 9.67391 6.4589 9.30004 6.3627 8.88748C6.2665 8.47492 6.29716 8.04292 6.45068 7.64809C6.6042 7.25326 6.8734 6.91401 7.22303 6.6748C7.57265 6.43559 7.98638 6.30756 8.41001 6.30751Z" fill="#DCEFF8"/>
</g>
<defs>
<clipPath id="clip0_194_2389">
<rect width="16.82" height="16.82" fill="white"/>
</clipPath>
</defs>
</svg>
