<svg width="17" height="17" viewBox="0 0 17 17" fill="none" xmlns="http://www.w3.org/2000/svg">
<path fill-rule="evenodd" clip-rule="evenodd" d="M9.11274 7.78091V2.80395C9.11274 2.61804 9.03889 2.43974 8.90743 2.30828C8.77597 2.17682 8.59767 2.10297 8.41176 2.10297C8.22585 2.10297 8.04755 2.17682 7.91609 2.30828C7.78464 2.43974 7.71078 2.61804 7.71078 2.80395V7.78091L6.16863 5.88826C6.11339 5.81462 6.0442 5.75257 5.96499 5.70567C5.88578 5.65877 5.7981 5.62793 5.70697 5.61491C5.61585 5.6019 5.52305 5.60695 5.43387 5.6298C5.3447 5.65265 5.2609 5.69283 5.18725 5.74806C5.11361 5.8033 5.05157 5.87249 5.00467 5.9517C4.95776 6.03091 4.92692 6.11859 4.91391 6.20972C4.90089 6.30084 4.90595 6.39365 4.92879 6.48282C4.95164 6.57199 4.99182 6.65579 5.04706 6.72944L7.85098 10.2343C7.91627 10.3214 8.00094 10.3921 8.09827 10.4407C8.19561 10.4894 8.30294 10.5147 8.41176 10.5147C8.52059 10.5147 8.62792 10.4894 8.72525 10.4407C8.82259 10.3921 8.90725 10.3214 8.97255 10.2343L11.7765 6.72944C11.8317 6.65579 11.8719 6.57199 11.8947 6.48282C11.9176 6.39365 11.9226 6.30084 11.9096 6.20972C11.8966 6.11859 11.8658 6.03091 11.8189 5.9517C11.772 5.87249 11.7099 5.8033 11.6363 5.74806C11.5626 5.69283 11.4788 5.65265 11.3897 5.6298C11.3005 5.60695 11.2077 5.6019 11.1166 5.61491C11.0254 5.62793 10.9377 5.65877 10.8585 5.70567C10.7793 5.75257 10.7101 5.81462 10.6549 5.88826L9.11274 7.71081V7.78091Z" fill="#DCEFF8"/>
<path fill-rule="evenodd" clip-rule="evenodd" d="M6.7995 11.1456L5.18725 9.11279H3.5049C3.13307 9.11279 2.77648 9.2605 2.51356 9.52342C2.25064 9.78634 2.10294 10.1429 2.10294 10.5148V13.3187C2.10294 14.0898 2.73382 14.7206 3.5049 14.7206H13.3186C13.6904 14.7206 14.047 14.5729 14.31 14.31C14.5729 14.0471 14.7206 13.6905 14.7206 13.3187V10.5148C14.7206 10.1429 14.5729 9.78634 14.31 9.52342C14.047 9.2605 13.6904 9.11279 13.3186 9.11279H11.6363L10.024 11.1456C9.82664 11.3813 9.57998 11.5709 9.30142 11.7009C9.02287 11.831 8.71918 11.8984 8.41176 11.8984C8.10434 11.8984 7.80065 11.831 7.5221 11.7009C7.24354 11.5709 6.99688 11.3813 6.7995 11.1456ZM11.9167 11.2157C11.7308 11.2157 11.5525 11.2896 11.421 11.421C11.2895 11.5525 11.2157 11.7308 11.2157 11.9167C11.2157 12.1026 11.2895 12.2809 11.421 12.4124C11.5525 12.5438 11.7308 12.6177 11.9167 12.6177C12.1026 12.6177 12.2809 12.5438 12.4123 12.4124C12.5438 12.2809 12.6176 12.1026 12.6176 11.9167C12.6176 11.7308 12.5438 11.5525 12.4123 11.421C12.2809 11.2896 12.1026 11.2157 11.9167 11.2157Z" fill="#DCEFF8"/>
</svg>
